<?xml version="1.0" encoding="UTF-8"?>
<svg viewBox="0 0 212.8625 212.8625" xmlns="http://www.w3.org/2000/svg">
 <defs>
  <clipPath id="a">
   <path d="m0 709.54v-709.54h709.54v709.54"/>
  </clipPath>
 </defs>
 <g transform="matrix(1.25 0 0 -1.25 0 212.86)">
  <g transform="scale(.24)">
   <g clip-path="url(#a)">
    <path d="m60.488 709.54c-33.356 0-60.488-27.137-60.488-60.492v-588.56c0-33.352 27.133-60.492 60.488-60.492h588.56c33.351 0 60.488 27.141 60.488 60.492v588.56c0 33.355-27.137 60.492-60.488 60.492h-588.56" fill="#231f20"/>
    <path d="m3.2656 60.492v588.56c0 31.551 25.668 57.219 57.223 57.219h588.56c31.555 0 57.219-25.668 57.219-57.219v-588.56c0-31.551-25.664-57.219-57.219-57.219h-588.56c-31.555 0-57.223 25.668-57.223 57.219" fill="#fff"/>
    <path d="m31.059 60.492v588.56c0 16.226 13.199 29.429 29.43 29.429h588.56c16.223 0 29.43-13.203 29.43-29.429v-588.56c0-16.223-13.207-29.426-29.43-29.426h-588.56c-16.23 0-29.43 13.203-29.43 29.426" fill="#285c9e"/>
    <path d="m635.93 118.36v47.387h-65.254l-215.91 425.43-215.91-425.43h-65.25v-47.387h562.33" fill="#fff"/>
    <path d="m446.42 165.75-91.652 176.91-91.653-176.91h183.3" fill="#285c9e"/>
   </g>
  </g>
 </g>
</svg>
