<?xml version="1.0" encoding="utf-8"?>
<!-- Generator: Adobe Illustrator 16.0.0, SVG Export Plug-In . SVG Version: 6.00 Build 0)  -->
<!DOCTYPE svg PUBLIC "-//W3C//DTD SVG 1.1//EN" "http://www.w3.org/Graphics/SVG/1.1/DTD/svg11.dtd">
<svg version="1.1" id="Calque_1" xmlns="http://www.w3.org/2000/svg" xmlns:xlink="http://www.w3.org/1999/xlink" x="0px" y="0px"
	 width="432px" height="432px" viewBox="0 0 432 432" enable-background="new 0 0 432 432" xml:space="preserve">
<g>
	<g>
		<path fill="#9A9999" d="M337.618,127.485c-6.074,0-11.034,4.767-11.344,10.764h-37.288c-0.799,0-19.631,0.004-25.469,0.339
			c-6.285,0.362-7.065,4.169-7.152,4.807l-9.607,47.557l-11.033-119.08c-0.05-0.531-0.486-0.942-1.02-0.96
			c-0.525-0.007-0.996,0.363-1.08,0.89l-13.555,84.112l-6.334-49.79c-0.064-0.512-0.488-0.901-1.004-0.925
			c-0.515-0.013-0.971,0.329-1.081,0.832c-0.214,0.982-5.262,24.109-5.866,29.143c-0.477,3.972-5.331,3.72-5.533,3.708
			c-0.023-0.001-0.047-0.002-0.07-0.002h-27.123c-0.882-3.604-5.601-10.206-10.036-12.951c-0.737-0.457-2.17-1.483-4.152-2.902
			c-8.723-6.246-29.149-20.874-47.298-26.951c-11.818-3.958-20.523,0.393-25.745,4.741c-3.716,3.094-6.195,6.56-7.479,8.613
			c-2.736,0.256-4.828,1.625-4.828,3.281c0,1.838,2.574,3.328,5.749,3.328c3.174,0,5.748-1.49,5.748-3.328
			c0-1.523-1.771-2.805-4.185-3.2c1.331-1.956,3.472-4.683,6.403-7.112c6.98-5.784,14.941-7.237,23.664-4.315
			c7.935,2.657,16.341,6.999,23.993,11.545c2.083,1.238,4.111,2.49,6.058,3.729c1.457,0.927,2.87,1.846,4.227,2.744
			c7.319,5.647,12.044,14.502,12.044,24.442c0,7.713-2.845,14.773-7.539,20.189c-4.206,2.891-9.228,6.204-14.635,9.423
			c-1.149,0.684-2.315,1.363-3.495,2.034c-6.717,3.817-13.857,7.328-20.652,9.603c-8.722,2.921-16.684,1.469-23.664-4.315
			c-2.715-2.249-4.75-4.752-6.094-6.664c2.254-0.45,3.875-1.686,3.875-3.143c0-1.838-2.574-3.328-5.748-3.328
			c-3.175,0-5.749,1.49-5.749,3.328c0,1.725,2.267,3.143,5.169,3.311c1.358,2.087,3.727,5.24,7.138,8.079
			c5.222,4.347,13.927,8.698,25.745,4.741c7.814-2.617,16.934-7.109,27.104-13.351c0.605-0.372,1.205-0.744,1.799-1.116
			c2.255-1.109,4.362-2.475,6.282-4.061c4.967-3.306,9.193-6.333,12.114-8.424c1.981-1.419,3.413-2.444,4.15-2.901
			c4.435-2.745,9.154-9.347,10.037-12.951h27.088c2.454,0.153,7.171-0.819,7.741-5.572c0.402-3.359,2.936-15.445,4.527-22.897
			l6.48,50.939c0.066,0.522,0.506,0.916,1.033,0.925c0.006,0,0.012,0,0.018,0c0.519,0,0.962-0.377,1.045-0.891l13.395-83.118
			l10.927,117.939c0.049,0.523,0.474,0.932,0.998,0.959c0.019,0.001,0.038,0.001,0.057,0.001c0.501,0,0.938-0.353,1.038-0.849
			l11.043-54.661c0.008-0.041,0.012-0.063,0.016-0.104c0.013-0.11,0.378-2.693,5.175-2.969c5.776-0.333,25.151-0.336,25.347-0.336
			h37.377c0.744,5.554,5.498,9.837,11.255,9.837c6.272,0,11.358-5.085,11.358-11.359
			C348.977,132.571,343.891,127.485,337.618,127.485z M168.158,146.019c-1.896,2.682-4.102,4.974-5.897,6.13
			c-0.768,0.494-2.168,1.537-4.105,2.98c-1.262,0.94-2.785,2.074-4.515,3.338c3.33-5.12,5.277-11.289,5.277-17.922
			c0-7.774-2.675-14.911-7.117-20.468c2.502,1.806,4.661,3.413,6.354,4.672c1.938,1.444,3.339,2.487,4.106,2.981
			c3.896,2.508,8.827,9.729,8.827,12.209C171.088,140.833,170.32,142.96,168.158,146.019z M337.618,148.537
			c-5.354,0-9.693-4.34-9.693-9.693s4.34-9.693,9.693-9.693c5.353,0,9.692,4.34,9.692,9.693S342.971,148.537,337.618,148.537z"/>
		<circle fill="#CDCCCC" cx="337.618" cy="138.844" r="8.334"/>
	</g>
	<path fill="#BE1622" d="M359.181,313.917l-9.094-34.298c-0.13-0.493-0.641-0.789-1.134-0.659l-2.148,0.57
		c-0.492,0.13-0.789,0.641-0.658,1.133l1.274,4.808l-15.349,4.069l-2.145-8.089l-33.602,8.909l-113.041,29.971
		c0,0-0.533,3.965-0.28,9.731l-5.831,1.546l1.045,3.941l-6.638,1.76c0,0-0.069,2.149,0.487,4.977l-40.913,10.847l0.344,1.296
		l40.863-10.834c0.469,1.854,1.216,3.885,2.408,5.744c3.551-0.845,5.553-1.321,6.683-1.59l1.385,5.223l5.069-1.344
		c1.552,3.323,3.568,6.548,6.184,9.46h0.001c0.196-0.052,0.399-0.106,0.605-0.161c0.03-0.008,0.062-0.017,0.092-0.025
		c22.607-6.006,104.371-28.26,134.487-36.462c0.585-0.159,1.15-0.313,1.696-0.462c0.545-0.148,1.07-0.292,1.574-0.429
		c0.252-0.068,0.499-0.136,0.74-0.201c0.724-0.197,1.399-0.382,2.023-0.552c1.457-0.396,2.635-0.718,3.499-0.953
		c0.247-0.067,0.469-0.127,0.663-0.181c0.683-0.186,1.041-0.283,1.041-0.283l-2.282-8.608l15.349-4.069l1.66,6.26
		c0.131,0.493,0.641,0.789,1.133,0.659l2.149-0.57C359.016,314.919,359.312,314.41,359.181,313.917z M338.941,320.473
		c-3.834,1.045-16.199,4.413-32.3,8.795l-9.985-37.663l32.357-8.579l1.814,6.845l6.159,23.23L338.941,320.473z"/>
	<g>
		<path fill="#9A9999" d="M210.311,239.451c8.65-6.257,40.471-14.693,46.893-0.644c-0.001-0.006-0.001-0.013-0.002-0.019
			c-1.112-4.697-9.376-12.648-14.419-14.262c-4.845-1.55-4.104-7.943-4.217-15.956c-1.386,0.759-3.707,1.849-7.087,2.871
			c-12.879,2.193-21.8,0.539-26.227-0.761c-0.1,2.099-0.303,7.508,0.017,11.022c0.403,4.438-3.631,6.454-11.294,9.457
			c-7.665,3.003-7.262,11.721-7.262,11.721s-0.201,44.371,0,45.178l18.556,9.479C205.066,296.932,200.831,246.308,210.311,239.451z"
			/>
		<path fill="#CDCCCC" d="M258.313,243.485c-0.105-1.783-0.493-3.331-1.109-4.678c-6.422-14.049-38.242-5.613-46.893,0.644
			c-9.479,6.857-5.244,57.481-5.042,58.086l54.859-14.118C260.128,283.419,259.522,263.855,258.313,243.485z"/>
		<path fill="#FFFFFF" d="M240.16,199.718c0,0-0.031,0.041-0.1,0.111c0.065,0.182,0.1,0.368,0.1,0.558V199.718z"/>
		<path fill="#CDCCCC" d="M220.135,206.444c-9.367,0.151-16.767-1.679-17.929-4.19c-0.105-0.015-0.165-0.024-0.165-0.024v7.289
			c0,0,1.095,0.54,3.211,1.161c4.427,1.3,13.348,2.954,26.227,0.761c3.38-1.021,5.701-2.111,7.087-2.871
			c1.083-0.594,1.595-0.986,1.595-0.986v-7.197C240.16,203.553,230.937,206.269,220.135,206.444z"/>
		<path fill="#9A9999" d="M240.061,199.83c-1.013-2.856-9.771-4.728-19.926-4.269c-10.213,0.462-18.094,3.137-18.094,5.998
			c0,0.237,0.06,0.469,0.165,0.696c1.162,2.511,8.562,4.342,17.929,4.19c10.802-0.175,20.025-2.891,20.025-6.057
			C240.16,200.197,240.126,200.012,240.061,199.83z"/>
		<polygon fill="#BE1622" points="245.076,259.344 237.84,260.51 237.35,253.408 231.749,254.194 232.086,261.436 224.281,262.693 
			224.381,268.687 232.357,267.27 232.731,275.291 238.775,274.079 238.234,266.226 245.617,264.914 		"/>
		<path fill="#CDCCCC" d="M192.814,234.358c0,0-4.235,1.513-4.084,8.622c0.15,7.109,0.604,15.731,0.604,15.731
			s1.206-13.311,1.436-16.034c0.229-2.723,2.195-6.353,2.951-6.958C194.479,235.115,193.773,233.804,192.814,234.358z"/>
		<path fill="#CDCCCC" d="M197.402,232.089l-1.966,0.857c0,0-0.403,1.261,1.563,0.504
			C198.966,232.694,199.016,231.787,197.402,232.089z"/>
		<path fill="#CDCCCC" d="M188.727,271.771c0,0-1.408,14.37,0.407,15.076c1.814,0.706,8.672,4.034,8.672,4.034
			s-6.4-4.084-7.563-5.647C188.78,283.268,188.727,271.771,188.727,271.771z"/>
	</g>
	<g>
		<path fill="#BE1622" d="M346.641,218.456c-1.785,0.103-1.943,0.937-1.949,0.973c0,0.016-0.004,0.038-0.012,0.077l-5.077,25.133
			c-0.091,0.446-0.48,0.763-0.935,0.763c-0.497-0.019-0.883-0.386-0.927-0.856l-4.695-50.677l-5.591,34.694
			c-0.074,0.458-0.465,0.791-0.929,0.791c-0.476,0-0.873-0.35-0.933-0.814l-2.643-20.777c-0.647,3.087-1.379,6.689-1.521,7.868
			c-0.176,1.47-1.187,2.509-2.772,2.853l-0.087,0.01c-0.619,0.013-1.054,0.026-1.293,0.04c-1.794,0.103-1.951,0.937-1.957,0.973
			c-0.001,0.017-0.004,0.038-0.012,0.077l-5.078,25.133c-0.089,0.443-0.478,0.763-0.924,0.763c-0.003,0-0.007,0-0.01,0
			c-0.497-0.019-0.883-0.386-0.927-0.856l-4.695-50.677l-5.591,34.694c-0.074,0.458-0.465,0.791-0.929,0.791
			c-0.477,0-0.873-0.35-0.933-0.814l-2.643-20.777c-0.647,3.086-1.379,6.689-1.521,7.868c-0.177,1.473-1.188,2.515-2.772,2.857
			l-0.097,0.01h-23.494c0.492,0.641,1.007,1.263,1.547,1.864h-0.001l0.005,0.005c0.478,0.531,0.974,1.045,1.485,1.542l50.434,52.359
			l49.154-52.291c0.738-0.712,1.441-1.46,2.106-2.242l0.004-0.003l0,0c0.382-0.449,0.747-0.913,1.104-1.383
			c-2.485,0.003-5.714,0.006-9.033,0.009C355.188,218.44,346.897,218.448,346.641,218.456z"/>
		<path fill="#BE1622" d="M290.192,215.482c0.279-2.333,2.606-12.994,2.705-13.447c0.096-0.44,0.494-0.75,0.952-0.739
			c0.468,0.021,0.842,0.366,0.9,0.822l2.516,19.777l5.733-35.578c0.073-0.457,0.481-0.793,0.951-0.791
			c0.481,0.016,0.87,0.383,0.914,0.854l4.79,51.693l3.807-18.845c0.05-0.374,0.486-2.389,3.709-2.574
			c0.256-0.015,0.688-0.028,1.323-0.041c0.637-0.195,0.997-0.601,1.069-1.207c0.28-2.332,2.606-12.994,2.705-13.447
			c0.097-0.44,0.495-0.753,0.953-0.739c0.467,0.021,0.842,0.367,0.899,0.822l2.516,19.777l5.733-35.578
			c0.073-0.453,0.476-0.791,0.938-0.791c0.005,0,0.009,0,0.013,0c0.481,0.016,0.871,0.383,0.914,0.854l4.79,51.694l3.808-18.846
			c0.05-0.374,0.485-2.389,3.708-2.574l0,0c0.145-0.008,6.149-0.015,16.021-0.024c3.926-0.004,7.724-0.007,10.302-0.011
			c3.159-4.873,4.995-10.684,4.995-16.924c0-17.209-13.951-31.161-31.16-31.161c-12.409,0-23.124,7.254-28.136,17.753
			c-5.012-10.499-15.727-17.753-28.136-17.753c-17.21,0-31.161,13.951-31.161,31.161c0,6.286,1.862,12.135,5.064,17.03h24.797
			C289.781,216.449,290.121,216.077,290.192,215.482z"/>
	</g>
	<g>
		<path fill="#F8BDA7" d="M173.829,222.094c0,0-5.881-13.145-11.761-20.063c-5.881-6.918-17.988-7.956-17.988-7.956
			s-13.389,13.199-30.027,29.701c-13.21-13.208-25.074-24.957-31.027-30.566c-18.68,7.61-28.02,29.057-28.02,29.057l30.095,30.326
			c-13.367,13.367-25.295,25.409-30.96,31.42c7.61,18.68,29.058,28.02,29.058,28.02l30.678-30.443l31.069,31.308
			c0,0,13.145-5.881,20.063-11.761c6.919-5.88,7.957-17.988,7.957-17.988s-13.385-13.578-30.049-30.378L173.829,222.094z"/>
		<circle fill="#BE1622" cx="64.098" cy="222.018" r="1.265"/>
		<circle fill="#BE1622" cx="68.151" cy="215.694" r="1.265"/>
		<circle fill="#BE1622" cx="70.68" cy="223.283" r="1.265"/>
		<circle fill="#BE1622" cx="73.372" cy="230.353" r="1.265"/>
		<circle fill="#BE1622" cx="78.431" cy="224.548" r="1.265"/>
		<circle fill="#BE1622" cx="84.528" cy="217.64" r="1.265"/>
		<circle fill="#BE1622" cx="91.241" cy="211.997" r="1.265"/>
		<circle fill="#BE1622" cx="92.866" cy="220.42" r="1.265"/>
		<circle fill="#BE1622" cx="87.998" cy="224.688" r="1.265"/>
		<circle fill="#BE1622" cx="82.291" cy="231.617" r="1.265"/>
		<circle fill="#BE1622" cx="74.637" cy="209.468" r="1.265"/>
		<circle fill="#BE1622" cx="75.901" cy="216.959" r="1.265"/>
		<circle fill="#BE1622" cx="82.29" cy="203.111" r="1.265"/>
		<circle fill="#BE1622" cx="83.555" cy="210.732" r="1.265"/>
		<circle fill="#BE1622" cx="165.514" cy="286.855" r="1.265"/>
		<circle fill="#BE1622" cx="160.894" cy="292.778" r="1.265"/>
		<circle fill="#BE1622" cx="159.076" cy="284.988" r="1.265"/>
		<circle fill="#BE1622" cx="157.047" cy="277.7" r="1.265"/>
		<circle fill="#BE1622" cx="151.474" cy="283.013" r="1.265"/>
		<circle fill="#BE1622" cx="144.767" cy="289.329" r="1.265"/>
		<circle fill="#BE1622" cx="137.562" cy="294.329" r="1.265"/>
		<circle fill="#BE1622" cx="136.721" cy="285.792" r="1.265"/>
		<circle fill="#BE1622" cx="141.961" cy="281.991" r="1.265"/>
		<circle fill="#BE1622" cx="148.284" cy="275.618" r="1.265"/>
		<circle fill="#BE1622" cx="153.861" cy="298.379" r="1.265"/>
		<circle fill="#BE1622" cx="153.293" cy="290.803" r="1.265"/>
		<circle fill="#BE1622" cx="145.654" cy="304.002" r="1.265"/>
		<circle fill="#BE1622" cx="145.098" cy="296.297" r="1.265"/>
		<g>
			<path fill="#BE1622" d="M91.932,245.771l-2.334-2.403l16.259-15.912l2.185,2.286c0.429-0.425,0.857-0.851,1.283-1.274
				l-3.814-3.779l-19.717,18.68l4.26,4.278C90.677,247.022,91.304,246.397,91.932,245.771z"/>
			<polygon fill="#BE1622" points="136.315,259.321 139.583,262.739 124.362,279.17 120.413,275.103 118.891,276.613 
				124.882,282.629 143.389,262.22 138.388,257.265 			"/>
			<path fill="#BE1622" d="M133.375,252.298l4.563-4.543l5.623-5.598l-20.409-18.507l-4.594,4.635l-4.665,4.709l-1.396,1.409
				l-15.962,16.109l-1.811,1.827l-4.934,4.98l-4.171,4.209l18.68,19.718l4.646-4.625l4.999-4.977l1.581-1.574l15.917-15.847
				L133.375,252.298z M114.356,268.866l-1.579,1.606l-4.943,5.029l-2.723,2.77l-16.725-17.088l2.688-2.569l5.07-4.847l1.841-1.76
				l16.375-15.653l1.487-1.421l4.782-4.571l3.04-2.906l16.431,15.22l-3.585,3.647l-4.526,4.604l-1.875,1.908L114.356,268.866z"/>
		</g>
		<circle fill="#BE1622" cx="82.949" cy="302.942" r="1.265"/>
		<circle fill="#BE1622" cx="76.626" cy="298.888" r="1.265"/>
		<circle fill="#BE1622" cx="84.214" cy="296.358" r="1.265"/>
		<circle fill="#BE1622" cx="91.284" cy="293.667" r="1.264"/>
		<circle fill="#BE1622" cx="85.479" cy="288.607" r="1.265"/>
		<circle fill="#BE1622" cx="78.572" cy="282.511" r="1.265"/>
		<circle fill="#BE1622" cx="72.929" cy="275.798" r="1.265"/>
		<circle fill="#BE1622" cx="81.351" cy="274.173" r="1.265"/>
		<circle fill="#BE1622" cx="85.62" cy="279.041" r="1.265"/>
		<circle fill="#BE1622" cx="92.549" cy="284.748" r="1.265"/>
		<circle fill="#BE1622" cx="70.399" cy="292.402" r="1.265"/>
		<circle fill="#BE1622" cx="77.891" cy="291.137" r="1.265"/>
		<circle fill="#BE1622" cx="64.043" cy="284.749" r="1.265"/>
		<circle fill="#BE1622" cx="71.664" cy="283.484" r="1.265"/>
		<circle fill="#BE1622" cx="147.787" cy="201.524" r="1.265"/>
		<circle fill="#BE1622" cx="153.709" cy="206.144" r="1.265"/>
		<circle fill="#BE1622" cx="145.919" cy="207.963" r="1.265"/>
		<circle fill="#BE1622" cx="138.632" cy="209.991" r="1.265"/>
		<circle fill="#BE1622" cx="143.945" cy="215.564" r="1.265"/>
		<circle fill="#BE1622" cx="150.261" cy="222.272" r="1.265"/>
		<circle fill="#BE1622" cx="155.26" cy="229.477" r="1.265"/>
		<circle fill="#BE1622" cx="146.724" cy="230.318" r="1.265"/>
		<circle fill="#BE1622" cx="142.922" cy="225.077" r="1.265"/>
		<circle fill="#BE1622" cx="136.549" cy="218.755" r="1.265"/>
		<circle fill="#BE1622" cx="159.311" cy="213.177" r="1.265"/>
		<circle fill="#BE1622" cx="151.735" cy="213.745" r="1.265"/>
		<circle fill="#BE1622" cx="164.934" cy="221.385" r="1.265"/>
		<circle fill="#BE1622" cx="157.229" cy="221.941" r="1.265"/>
	</g>
</g>
</svg>
