<?xml version="1.0" encoding="utf-8"?>
<!-- Generator: Adobe Illustrator 24.3.0, SVG Export Plug-In . SVG Version: 6.00 Build 0)  -->
<svg version="1.1" id="Calque_1" xmlns="http://www.w3.org/2000/svg" xmlns:xlink="http://www.w3.org/1999/xlink" x="0px" y="0px"
	 viewBox="0 0 432 432" style="enable-background:new 0 0 432 432;" xml:space="preserve">
<style type="text/css">
	.st0{fill:#8B9B75;}
	.st1{fill:#CCCCCC;}
	.st2{fill:#74AFC4;}
	.st3{fill:#B7535A;}
	.st4{fill:#5F6852;}
	.st5{fill:#B2C191;}
	.st6{fill:#998675;}
	.st7{fill:#E5AE6C;}
	.st8{fill:#736357;}
	.st9{fill:#E6E6E6;}
	.st10{fill:#999999;}
	.st11{fill:#C69C6D;}
	.st12{fill:#CCE0E5;}
	.st13{fill:#E0CACC;}
	.st14{fill:#EACAA4;}
	.st15{fill:#B3B3B3;}
	.st16{fill:#D69950;}
	.st17{fill:#E5AD6A;}
	.st18{fill:#D3B4B6;}
	.st19{fill:#E8A34F;}
	.st20{fill:#808080;}
	.st21{fill:#534741;}
	.st22{fill:#5D808C;}
	.st23{fill:#F9C132;}
	.st24{fill:#6C755F;}
	.st25{fill:#95AEB7;}
	.st26{fill:#C79C52;}
	.st27{fill:#DD9F54;}
	.st28{fill:#748B91;}
	.st29{fill:#9BC2CC;}
	.st30{fill:#AD868A;}
	.st31{fill:#727C62;}
	.st32{fill:#666666;}
	.st33{fill:#F9A332;}
	.st34{fill:#CCD3BA;}
	.st35{fill:#C7B299;}
	.st36{fill:#4D4D4D;}
	.st37{fill:#333333;}
	.st38{fill:none;}
	.st39{fill:#879193;}
	.st40{fill:#E09F51;}
	.st41{fill:#869372;}
</style>
<g>
	<g>
		<path class="st15" d="M66.99,355.01c-0.87,0.03-1.35-0.67-1.06-1.28c0.14-0.3,0.38-0.56,0.6-0.81
			c6.98-7.76,13.96-15.53,20.94-23.29c14.74-16.39,29.49-32.78,44.23-49.17c0.31-0.34,0.6-0.7,0.94-1.01
			c0.46-0.43,0.93-0.46,1.32-0.14c0.43,0.35,0.47,0.86,0.08,1.39c-0.14,0.2-0.32,0.37-0.48,0.56
			c-19.96,22.19-39.92,44.37-59.88,66.56c-1.93,2.15-3.85,4.3-5.8,6.43C67.59,354.58,67.21,354.83,66.99,355.01z"/>
		<path class="st15" d="M179.75,278.97c0.12,0.06,0.38,0.16,0.58,0.33c0.28,0.24,0.52,0.52,0.76,0.8
			c14.47,15.89,28.93,31.79,43.4,47.68c7.42,8.15,14.84,16.3,22.26,24.45c0.23,0.25,0.47,0.5,0.65,0.77
			c0.3,0.45,0.23,0.94-0.11,1.25c-0.36,0.32-0.81,0.33-1.25-0.03c-0.21-0.17-0.39-0.39-0.58-0.59
			c-21.95-24.11-43.89-48.22-65.84-72.34c-0.25-0.27-0.52-0.53-0.71-0.84C178.46,279.79,178.85,278.99,179.75,278.97z"/>
		<path class="st6" d="M65.42,352.99c0.09,3.32,0.17,5.93,0.24,8.54c0.01,0.31,0.02,0.62-0.05,0.92c-0.09,0.43-0.37,0.7-0.83,0.74
			c-0.46,0.03-0.83-0.22-0.96-0.69c-0.06-0.23-0.07-0.48-0.08-0.73c-0.14-5-0.27-10-0.41-15c-0.01-0.4-0.07-0.8-0.05-1.19
			c0.02-0.33,0.04-0.69,0.19-0.97c0.32-0.6,1.17-0.62,1.52-0.04c0.15,0.25,0.23,0.57,0.24,0.87
			C65.31,348.19,65.37,350.95,65.42,352.99z"/>
		<path class="st6" d="M249.93,353.21c-0.06,2.7-0.12,5.4-0.18,8.1c0,0.12,0,0.25-0.01,0.37c-0.09,0.63-0.48,1-1.02,0.97
			c-0.5-0.03-0.81-0.36-0.87-1c-0.03-0.33-0.02-0.67-0.01-1.01c0.1-4.75,0.21-9.51,0.31-14.26c0.01-0.49-0.01-0.98,0-1.47
			c0.03-0.83,0.39-1.29,1-1.29c0.62,0.01,0.97,0.47,0.95,1.31c-0.05,2.45-0.11,4.91-0.17,7.36c-0.01,0.31,0,0.61,0,0.92
			C249.93,353.21,249.93,353.21,249.93,353.21z"/>
		<path class="st16" d="M189.29,360.99c0.58-0.63,1.19-1.24,1.73-1.9c4.64-5.65,7.81-12.02,9.38-19.17c0.3-1.35,0.46-2.72,0.33-4.12
			c-0.11-1.21-0.66-2.15-1.64-2.86c-0.17-0.13-0.35-0.26-0.53-0.37c-4.9-2.98-9.34-6.57-13.72-10.24
			c-7.15-5.98-13.93-12.34-20.08-19.36c-1.98-2.26-3.87-4.61-5.8-6.92c-0.39-0.47-0.78-0.95-1.18-1.41
			c-0.81-0.92-1.67-0.91-2.49,0.03c-0.52,0.6-1.03,1.22-1.52,1.85c-4.48,5.67-9.28,11.05-14.47,16.09
			c-5.87,5.7-12.02,11.06-18.51,16.04c-1.56,1.19-3.21,2.26-4.83,3.38c-0.5,0.35-1.03,0.67-1.54,1.01c-1.25,0.83-1.84,2.01-1.86,3.5
			c-0.03,1.92,0.31,3.8,0.86,5.63c2.1,7.01,5.35,13.38,10.49,18.69c0.15,0.15,0.28,0.31,0.55,0.62c-0.46,0.01-0.78,0.03-1.09,0.03
			c-14.71,0.07-29.42,0.13-44.13,0.2c-1.38,0.01-2.76,0.02-4.14,0.02c-0.25,0-0.49,0.02-0.74-0.02c-0.6-0.08-0.75-0.48-0.37-0.97
			c0.17-0.22,0.38-0.4,0.58-0.59c2.97-2.9,5.96-5.76,8.89-8.7c8.98-8.99,17.13-18.7,24.9-28.74c14.98-19.39,28.84-39.54,41.66-60.41
			c1.94-3.16,3.66-6.46,5.48-9.7c0.21-0.37,0.37-0.84,0.89-0.82c0.52,0.02,0.76,0.43,1,0.85c1.61,2.86,3.16,5.76,4.86,8.57
			c7.59,12.5,15.84,24.57,24.26,36.51c8.47,12,17.31,23.71,26.71,34.99c7.01,8.41,14.47,16.39,22.47,23.87
			c0.99,0.92,1.95,1.87,2.93,2.81c0.13,0.13,0.3,0.24,0.38,0.39c0.14,0.25,0.37,0.55,0.32,0.79c-0.07,0.36-0.47,0.43-0.83,0.43
			c-1.69,0-3.38,0.02-5.07,0.02c-14.4,0.06-28.8,0.13-43.21,0.19c-0.29,0-0.59,0-0.88,0C189.31,361.13,189.3,361.06,189.29,360.99z"
			/>
		<path class="st16" d="M156.58,298.79c3.22,11.19,7.64,21.7,12.42,32.07c4.77,10.34,9.62,20.64,16.01,30.36
			c-18.91,0.12-37.65,0.19-56.48,0.27c0.09-0.22,0.12-0.37,0.2-0.48c5.01-7.79,9.1-16.07,13-24.46c4.06-8.74,8.01-17.53,11.22-26.63
			c1.23-3.47,2.27-7,3.4-10.51C156.39,299.27,156.45,299.14,156.58,298.79z"/>
		<path class="st17" d="M159.63,299.77c0.2,0.3,0.33,0.51,0.48,0.7c8.34,10.12,17.92,18.95,28.15,27.11
			c2.83,2.26,5.71,4.47,8.85,6.29c1.38,0.81,1.9,1.86,1.73,3.42c-0.26,2.4-0.79,4.72-1.64,6.97c-1.84,4.92-4.19,9.55-7.65,13.56
			c-0.6,0.7-1.24,1.36-1.89,2.01c-0.52,0.51-0.74,0.5-1.21-0.04c-0.3-0.34-0.56-0.73-0.81-1.12c-3.91-6.15-7.29-12.59-10.44-19.15
			c-4.09-8.52-8.11-17.08-11.5-25.91c-1.55-4.04-2.91-8.14-4.34-12.23c-0.12-0.36-0.11-0.77-0.13-1.15
			C159.22,300.16,159.37,300.07,159.63,299.77z"/>
		<path class="st17" d="M153.57,299.91c0.58,0.5,0.39,0.95,0.25,1.38c-0.71,2.19-1.4,4.38-2.15,6.56
			c-3.29,9.43-7.32,18.54-11.53,27.59c-3,6.46-6.09,12.87-9.67,19.03c-0.93,1.59-1.88,3.16-2.86,4.72c-0.94,1.51-1.13,1.5-2.35,0.28
			c-3.44-3.44-5.84-7.56-7.84-11.94c-1.24-2.72-2.23-5.52-2.7-8.48c-0.13-0.79-0.19-1.58-0.23-2.38c-0.04-0.93,0.35-1.65,1.15-2.15
			c1.14-0.72,2.28-1.46,3.39-2.22c4.05-2.8,7.82-5.94,11.55-9.14c7.26-6.22,14.13-12.84,20.33-20.13c0.68-0.8,1.34-1.6,2.01-2.4
			C153.11,300.39,153.32,300.18,153.57,299.91z"/>
	</g>
	<g>
		<path class="st15" d="M112.45,87.8c-0.12,0.21-0.3,0.56-0.53,0.88c-2.81,4.06-5.63,8.13-8.44,12.19
			c-14.71,21.22-29.41,42.44-44.12,63.65c-0.21,0.3-0.41,0.62-0.66,0.89c-0.39,0.42-0.84,0.48-1.23,0.21
			c-0.43-0.29-0.53-0.77-0.25-1.3c0.13-0.24,0.29-0.47,0.45-0.69c17.54-25.31,35.07-50.61,52.61-75.92
			c0.23-0.33,0.48-0.64,0.76-0.91c0.27-0.25,0.61-0.27,0.94-0.08C112.35,86.9,112.5,87.22,112.45,87.8z"/>
		<path class="st15" d="M196.02,86.35c0.12,0.07,0.38,0.17,0.57,0.34c0.22,0.2,0.39,0.47,0.57,0.72
			c17.7,25.23,35.4,50.46,53.1,75.69c0.19,0.28,0.39,0.56,0.52,0.86c0.19,0.42,0.05,0.79-0.3,1.06c-0.37,0.29-0.77,0.27-1.1-0.02
			c-0.29-0.26-0.52-0.6-0.75-0.92c-6.86-9.77-13.72-19.55-20.58-29.32c-10.72-15.28-21.44-30.56-32.16-45.83
			c-0.26-0.38-0.56-0.74-0.76-1.15C194.79,87.09,195.18,86.37,196.02,86.35z"/>
		<path class="st6" d="M55.91,162.76c0.01,2.73,0.02,5.46,0.02,8.18c0,0.3-0.01,0.62-0.09,0.91c-0.12,0.42-0.44,0.66-0.9,0.64
			c-0.46-0.02-0.75-0.27-0.85-0.71c-0.06-0.24-0.06-0.49-0.06-0.73c-0.02-5.52-0.03-11.04-0.04-16.55c0-0.24,0-0.49,0.05-0.73
			c0.1-0.48,0.46-0.78,0.89-0.78c0.42,0,0.82,0.3,0.92,0.76c0.05,0.27,0.04,0.55,0.04,0.82c0.01,2.73,0.02,5.46,0.03,8.18
			C55.91,162.76,55.91,162.76,55.91,162.76z"/>
		<path class="st6" d="M251.99,162.14c-0.01-2.7-0.02-5.4-0.02-8.09c0-0.28-0.02-0.56,0.03-0.83c0.09-0.5,0.52-0.84,0.97-0.81
			c0.43,0.03,0.77,0.34,0.85,0.83c0.05,0.27,0.04,0.55,0.04,0.82c0.02,5.43,0.04,10.85,0.06,16.28c0,0.28,0.01,0.56-0.04,0.82
			c-0.08,0.43-0.35,0.71-0.81,0.75c-0.45,0.04-0.84-0.2-0.96-0.68c-0.07-0.29-0.07-0.61-0.07-0.91c-0.01-2.73-0.02-5.46-0.03-8.18
			C252,162.14,251.99,162.14,251.99,162.14z"/>
		<path class="st3" d="M227.88,166.04c-0.52,0-0.88,0-1.24,0c-13.21,0.05-26.41,0.1-39.62,0.16c-1.73,0.01-1.86-0.15-1.93-1.87
			c-0.43-10.88-2.48-21.46-6.36-31.63c-2.2-5.77-5.61-10.77-10.31-14.82c-3.29-2.83-7.01-4.83-11.3-5.68
			c-2.86-0.57-5.62-0.19-8.34,0.72c-4.47,1.51-8.15,4.22-11.31,7.67c-3.93,4.28-6.64,9.26-8.46,14.75
			c-2.06,6.22-3.54,12.58-4.41,19.08c-0.46,3.44-0.78,6.89-0.85,10.37c-0.03,1.38-0.37,1.71-1.79,1.72
			c-3.81,0.02-7.62,0.04-11.42,0.05c-9.77,0.04-19.53,0.07-29.3,0.1c-0.36,0-0.72,0-1.18,0c0.23-1.67,0.42-3.22,0.66-4.76
			c1.1-6.87,3.15-13.5,5.32-20.09c2.24-6.78,5.01-13.33,8.27-19.67c0.15-0.3,0.32-0.6,0.46-0.9c1.19-2.53,3.15-4.12,5.77-5.09
			c16.88-6.27,33.74-12.58,50.6-18.91c1.6-0.6,3.15-0.69,4.75-0.11c4.06,1.48,8.14,2.92,12.2,4.41
			c13.08,4.79,26.14,9.61,39.22,14.39c2.46,0.9,4.25,2.45,5.49,4.76c4.28,8.02,7.68,16.39,10.39,25.05c1.51,4.8,2.94,9.63,3.81,14.6
			C227.32,162.18,227.57,164.03,227.88,166.04z"/>
		<path class="st18" d="M154.62,166.39c-8.75,0.03-17.5,0.05-26.25,0.07c-0.55,0-1.11,0.01-1.66-0.04
			c-0.94-0.08-1.19-0.34-1.16-1.29c0.05-1.81,0.1-3.62,0.25-5.43c0.64-7.71,2.18-15.24,4.49-22.61c1.56-4.96,3.77-9.59,7.07-13.65
			c2.78-3.43,6.02-6.3,10.1-8.11c2.35-1.05,4.79-1.71,7.4-1.6c2.06,0.08,3.99,0.63,5.87,1.41c3.76,1.56,6.85,4.05,9.54,7.06
			c3.81,4.26,6.35,9.23,8.08,14.64c2.08,6.5,3.62,13.13,4.35,19.93c0.28,2.59,0.4,5.2,0.59,7.8c0.02,0.24,0.02,0.49,0,0.74
			c-0.05,0.59-0.27,0.82-0.86,0.88c-0.37,0.04-0.74,0.03-1.1,0.03c-8.9,0.03-17.81,0.05-26.71,0.08
			C154.62,166.33,154.62,166.36,154.62,166.39z"/>
		<path class="st18" d="M153.23,68.81c3.29,0.09,6.08,0.66,8.82,1.51c14.01,4.36,25.54,12.25,34.26,24.12
			c4.26,5.79,8.14,11.84,11.87,17.98c0.19,0.31,0.34,0.66,0.42,1.01c0.1,0.45-0.16,0.72-0.62,0.66c-0.3-0.04-0.59-0.16-0.88-0.27
			c-14.08-5.17-28.16-10.34-42.24-15.51c-2.65-0.97-5.3-1.95-7.95-2.92c-0.63-0.23-1.28-0.43-1.93-0.6
			c-0.94-0.26-1.89-0.22-2.81,0.11c-2.34,0.84-4.67,1.68-7,2.55c-14.89,5.56-29.77,11.13-44.65,16.69
			c-0.29,0.11-0.58,0.23-0.88,0.27c-0.45,0.05-0.69-0.22-0.6-0.68c0.06-0.29,0.17-0.59,0.33-0.85c4.17-6.92,8.41-13.79,13.37-20.18
			c7.21-9.28,16.34-16.03,27.25-20.4c3.22-1.29,6.49-2.45,9.92-3.05C151.13,69.03,152.39,68.92,153.23,68.81z"/>
	</g>
	<g>
		<path class="st15" d="M193.28,247.61c-2.15,5.8-3.6,11.65-3.73,17.92c0.88,0,1.67-0.02,2.46,0c0.3,0.01,0.62,0.04,0.9,0.14
			c0.38,0.14,0.57,0.45,0.56,0.87c-0.02,0.41-0.23,0.71-0.63,0.82c-0.29,0.08-0.6,0.12-0.91,0.12c-2.83,0.01-5.65,0.01-8.48,0
			c-0.3,0-0.62-0.03-0.91-0.12c-0.38-0.12-0.59-0.44-0.59-0.85c0-0.41,0.2-0.72,0.59-0.85c0.26-0.08,0.54-0.12,0.81-0.12
			c1.07-0.01,2.15-0.01,3.22-0.01c0.3,0,0.6,0,1,0c0.2-6.38,1.63-12.44,3.83-18.42c-1.23-0.34-2.38-0.65-3.52-0.98
			c-0.32-0.09-0.65-0.19-0.95-0.35c-0.39-0.21-0.55-0.57-0.43-1.01c0.12-0.44,0.44-0.67,0.88-0.66c0.3,0.01,0.61,0.08,0.9,0.16
			c1.24,0.33,2.48,0.67,3.82,1.03c2.46-6.02,5.55-11.64,9.2-17.06c-0.56-0.37-1.06-0.71-1.57-1.05c-0.74-0.49-1.5-0.96-2.22-1.49
			c-0.54-0.39-0.64-0.91-0.34-1.35c0.29-0.43,0.83-0.55,1.39-0.21c0.99,0.61,1.96,1.27,2.94,1.91c0.28,0.18,0.56,0.35,0.91,0.58
			c3.51-4.98,7.37-9.62,11.63-14.06c-0.4-0.33-0.75-0.62-1.09-0.91c-0.81-0.66-1.63-1.31-2.41-2c-0.51-0.45-0.55-0.97-0.21-1.38
			c0.34-0.41,0.88-0.47,1.4-0.07c0.92,0.71,1.82,1.46,2.72,2.2c0.28,0.23,0.57,0.46,0.95,0.76c4.77-4.77,9.84-9.15,15.34-13.15
			c-0.97-1.18-1.88-2.29-2.79-3.4c-0.19-0.24-0.4-0.47-0.55-0.74c-0.24-0.43-0.16-0.9,0.16-1.18c0.36-0.32,0.85-0.33,1.26,0.02
			c0.23,0.2,0.42,0.45,0.61,0.68c0.94,1.13,1.87,2.27,2.87,3.49c6-4.18,12.26-7.84,18.99-10.81c-0.12-0.27-0.2-0.49-0.31-0.7
			c-0.55-1.06-1.12-2.12-1.66-3.18c-0.12-0.24-0.24-0.5-0.29-0.77c-0.08-0.44,0.12-0.78,0.53-0.97c0.38-0.18,0.74-0.08,1.01,0.21
			c0.19,0.2,0.33,0.44,0.45,0.69c0.56,1.06,1.12,2.12,1.68,3.18c0.13,0.24,0.27,0.47,0.43,0.75c8.39-3.45,17-5.75,26.14-5.93
			c0-0.52,0-0.97-0.01-1.42c-0.02-1.01-0.05-2.03-0.07-3.04c0-0.24-0.01-0.5,0.03-0.73c0.08-0.47,0.44-0.78,0.88-0.8
			c0.43-0.01,0.82,0.28,0.93,0.74c0.06,0.27,0.05,0.55,0.06,0.82c0.06,1.44,0.11,2.88,0.17,4.43c8.76,0.25,17.05,2.41,25.15,5.66
			c0.65-1.25,1.27-2.45,1.9-3.64c0.14-0.27,0.28-0.55,0.47-0.79c0.32-0.4,0.75-0.48,1.15-0.27c0.4,0.21,0.58,0.61,0.45,1.1
			c-0.08,0.29-0.23,0.57-0.37,0.84c-0.58,1.14-1.18,2.28-1.81,3.5c6.75,2.93,13.07,6.5,19.15,10.69c0.31-0.37,0.6-0.72,0.88-1.07
			c0.66-0.81,1.31-1.62,1.98-2.43c0.17-0.21,0.35-0.43,0.57-0.6c0.35-0.26,0.75-0.28,1.11-0.01c0.37,0.28,0.44,0.67,0.28,1.07
			c-0.11,0.28-0.31,0.53-0.5,0.76c-0.88,1.1-1.77,2.19-2.74,3.38c5.5,3.96,10.63,8.28,15.46,13.06c0.5-0.4,0.95-0.75,1.39-1.12
			c0.69-0.56,1.36-1.15,2.07-1.69c0.53-0.4,1.06-0.35,1.4,0.05c0.35,0.41,0.32,0.93-0.19,1.38c-0.82,0.74-1.69,1.42-2.54,2.13
			c-0.23,0.19-0.45,0.4-0.73,0.65c4.26,4.38,8.16,8.98,11.75,13.99c0.52-0.34,0.99-0.66,1.47-0.97c0.66-0.44,1.32-0.9,2-1.32
			c0.61-0.38,1.16-0.32,1.48,0.12c0.34,0.47,0.2,1.03-0.44,1.48c-0.85,0.6-1.73,1.16-2.6,1.74c-0.25,0.17-0.49,0.35-0.78,0.56
			c3.69,5.41,6.86,11.03,9.36,17.07c1.23-0.34,2.38-0.66,3.53-0.97c0.24-0.06,0.48-0.14,0.72-0.15c0.55-0.04,0.94,0.24,1.04,0.7
			c0.1,0.42-0.1,0.82-0.56,1.05c-0.27,0.13-0.57,0.21-0.87,0.3c-1,0.29-2,0.57-3.12,0.88c1.05,3.02,2.04,6,2.72,9.08
			c0.68,3.07,1.08,6.16,1.23,9.37c0.31,0.02,0.58,0.05,0.84,0.05c0.95,0,1.9-0.01,2.86-0.01c0.24,0,0.5-0.01,0.73,0.04
			c0.54,0.1,0.85,0.48,0.84,0.95c-0.01,0.44-0.3,0.78-0.79,0.89c-0.24,0.05-0.49,0.06-0.73,0.07c-2.83,0.02-5.65,0.04-8.48,0.05
			c-0.27,0-0.55-0.02-0.82-0.09c-0.43-0.11-0.68-0.41-0.69-0.86c-0.01-0.46,0.24-0.76,0.66-0.89c0.26-0.08,0.54-0.09,0.82-0.1
			c0.89-0.01,1.77-0.01,2.64-0.01c0.5-3.02-1.32-12.35-3.74-17.91c-0.21,0.03-0.45,0.05-0.67,0.11c-1.04,0.28-2.07,0.57-3.1,0.86
			c-0.21,0.06-0.41,0.13-0.62,0.15c-0.47,0.03-0.87-0.26-0.99-0.67c-0.12-0.42,0.05-0.86,0.48-1.09c0.24-0.13,0.52-0.19,0.78-0.27
			c1.11-0.32,2.23-0.64,3.43-0.98c-2.44-5.89-5.52-11.31-9.1-16.54c-0.71,0.47-1.38,0.91-2.04,1.34c-0.21,0.13-0.4,0.29-0.62,0.4
			c-0.52,0.27-1.01,0.17-1.31-0.25c-0.3-0.42-0.23-0.93,0.23-1.3c0.38-0.31,0.81-0.56,1.21-0.84c0.38-0.26,0.76-0.51,1.14-0.77
			c0.05-0.03,0.09-0.08,0.23-0.22c-3.49-4.88-7.36-9.45-11.62-13.8c-0.46,0.37-0.88,0.72-1.31,1.06c-0.22,0.17-0.42,0.36-0.66,0.5
			c-0.46,0.26-0.95,0.17-1.24-0.21c-0.27-0.35-0.27-0.8,0.06-1.18c0.26-0.3,0.59-0.54,0.89-0.8c0.25-0.22,0.51-0.44,0.77-0.65
			c-0.95-1.65-11.65-10.75-15.11-12.84c-0.24,0.28-0.48,0.58-0.73,0.87c-0.2,0.23-0.38,0.48-0.61,0.68
			c-0.39,0.34-0.81,0.35-1.18,0.08c-0.37-0.28-0.49-0.78-0.22-1.24c0.2-0.34,0.48-0.64,0.72-0.96c0.14-0.19,0.28-0.39,0.44-0.63
			c-5.92-4.07-12.1-7.58-18.76-10.44c-0.23,0.42-0.45,0.81-0.66,1.2c-0.15,0.27-0.28,0.55-0.44,0.81c-0.35,0.54-0.87,0.7-1.33,0.44
			c-0.42-0.24-0.56-0.72-0.33-1.3c0.14-0.34,0.33-0.66,0.49-0.99c0.13-0.27,0.26-0.55,0.44-0.92c-7.78-3.11-15.71-5.21-24.16-5.42
			c0,0.62,0,1.1,0.01,1.59c0,0.28,0.04,0.55,0.03,0.83c-0.03,0.66-0.37,1.07-0.89,1.09c-0.54,0.03-0.96-0.4-1.01-1.09
			c-0.04-0.46-0.02-0.92-0.04-1.38c-0.01-0.3-0.04-0.6-0.06-0.88c-3.88-0.94-19.8,2.58-25.33,5.61c0.24,0.47,0.49,0.95,0.73,1.43
			c0.38,0.77,0.29,1.35-0.24,1.61c-0.42,0.2-1.04,0.14-1.46-0.74c-0.24-0.52-0.54-1.02-0.85-1.59c-6.61,2.9-12.75,6.46-18.67,10.59
			c0.21,0.28,0.39,0.51,0.56,0.75c0.17,0.22,0.36,0.43,0.49,0.67c0.24,0.43,0.16,0.9-0.16,1.18c-0.37,0.33-0.83,0.33-1.25-0.02
			c-0.21-0.18-0.38-0.4-0.56-0.61c-0.22-0.25-0.43-0.5-0.69-0.8c-5.37,3.89-10.34,8.15-15.05,12.86c0.39,0.33,0.72,0.6,1.04,0.87
			c0.19,0.16,0.38,0.31,0.54,0.5c0.32,0.39,0.33,0.84,0.07,1.18c-0.29,0.38-0.79,0.5-1.24,0.21c-0.49-0.32-0.92-0.71-1.38-1.07
			c-0.1-0.07-0.2-0.14-0.29-0.21c-1.65,1.04-10.2,11.3-11.55,13.87c0.57,0.38,1.16,0.77,1.74,1.16c0.23,0.15,0.47,0.29,0.67,0.48
			c0.35,0.34,0.4,0.8,0.16,1.17c-0.26,0.41-0.74,0.58-1.21,0.35c-0.44-0.22-0.83-0.52-1.25-0.78c-0.41-0.26-0.81-0.53-1.29-0.83
			c-3.53,5.23-6.54,10.64-8.94,16.52c1.09,0.3,2.08,0.58,3.08,0.86c0.24,0.07,0.48,0.12,0.7,0.22c0.49,0.22,0.72,0.65,0.6,1.11
			c-0.12,0.48-0.6,0.8-1.14,0.68c-0.75-0.16-1.48-0.39-2.22-0.59C194.48,247.93,193.95,247.79,193.28,247.61z"/>
		<path class="st5" d="M197.35,266.26c0.21-1.28,0.39-2.58,0.63-3.87c1.87-10.04,5.59-19.39,10.87-28.1
			c9.98-16.48,23.51-29.19,40.8-37.79c6.63-3.3,13.59-5.65,20.9-6.92c3.88-0.67,7.78-1.15,11.73-0.8c5.59,0.49,11.05,1.6,16.38,3.34
			c10.66,3.49,20.26,8.92,28.94,15.98c12.06,9.82,21.45,21.72,27.86,35.93c3,6.64,5.1,13.55,6.19,20.76
			c0.03,0.21,0.04,0.42,0.07,0.76c-15.46,0.04-30.89,0.09-46.37,0.13c0.03-0.66,0.11-1.3,0.08-1.93c-0.11-2.36-0.16-4.73-0.41-7.08
			c-0.57-5.38-1.5-10.7-2.95-15.92c-1.34-4.84-3.06-9.53-5.79-13.79c-2.12-3.3-4.53-6.35-7.68-8.75c-4.12-3.14-8.74-5.02-13.88-5.74
			c-5.16-0.72-10.25-0.42-15.22,1.07c-5.95,1.77-10.74,5.27-14.52,10.21c-3.33,4.35-5.61,9.21-7.23,14.41
			c-1.43,4.58-2.41,9.27-3.06,14.02c-0.42,3.07-0.67,6.16-0.91,9.25c-0.1,1.34,0.01,2.7,0.02,4.05c0,0.18,0,0.36,0,0.65
			C228.3,266.17,212.87,266.21,197.35,266.26z"/>
		<path class="st0" d="M313.41,265.82c-22.61,0.07-45.05,0.13-67.59,0.2c-0.05-0.42-0.16-0.9-0.15-1.37
			c0.03-1.93,0.01-3.87,0.16-5.8c0.46-5.76,1.39-11.45,2.86-17.05c1.22-4.65,2.81-9.16,5.34-13.28c2.16-3.5,4.67-6.7,8.03-9.15
			c3.77-2.75,7.98-4.38,12.6-5.03c4.72-0.66,9.38-0.42,13.95,0.91c4.86,1.41,8.99,4.02,12.36,7.82c3.77,4.25,6.33,9.17,8.12,14.53
			c1.57,4.7,2.6,9.53,3.36,14.41c0.52,3.34,0.93,6.69,1,10.07C313.48,263.28,313.43,264.47,313.41,265.82z"/>
	</g>
</g>
</svg>
